# xmcd CD database file
#
# Track frame offsets:
#	150
#	17997
#	40852
#	71717
#	84417
#	100842
#	127610
#	141095
#	154102
#
# Disc length: 2170 seconds
#
# Revision: 1
# Processed by: cddbd v1.5.2PL0 Copyright (c) Steve Scherf et al.
# Submitted via: CDex 1.70beta2
#
DISCID=6c087809
DTITLE=Mr. Acker Bilk - Stranger on the shore
DYEAR=1997
DGENRE=Jazz
TTITLE0=Sweet Georgia Brown
TTITLE1=Riverboat Shuffle
TTITLE2=Black&Tan Fantasy
TTITLE3=Don't roll those bloodshot eyes at me
TTITLE4=Blaze away
TTITLE5=Mood indigo
TTITLE6=The white cliffs of Dover
TTITLE7=Stranger on the shore
TTITLE8=That's my home
EXTD=YEAR: 1997
EXTT0=
EXTT1=
EXTT2=
EXTT3=
EXTT4=
EXTT5=
EXTT6=
EXTT7=
EXTT8=
PLAYORDER=
